<svg width="1400" height="720" viewBox="0 0 1400 720" fill="none" xmlns="http://www.w3.org/2000/svg" role="img" aria-labelledby="title desc">
  <title id="title">NeoBot product banner</title>
  <desc id="desc">An AI CRM workspace showing chat, CRM records, automations, tools, approvals, and agent run state.</desc>
  <defs>
    <linearGradient id="bg" x1="0" y1="0" x2="1400" y2="720" gradientUnits="userSpaceOnUse">
      <stop stop-color="#F8FAFC"/>
      <stop offset="0.52" stop-color="#FFFFFF"/>
      <stop offset="1" stop-color="#F4F2FF"/>
    </linearGradient>
    <linearGradient id="ink" x1="0" y1="0" x2="1" y2="1">
      <stop stop-color="#111827"/>
      <stop offset="1" stop-color="#34323B"/>
    </linearGradient>
    <linearGradient id="violet" x1="0" y1="0" x2="1" y2="1">
      <stop stop-color="#6D5EF8"/>
      <stop offset="1" stop-color="#B469FF"/>
    </linearGradient>
    <linearGradient id="blue" x1="0" y1="0" x2="1" y2="1">
      <stop stop-color="#2F6FEB"/>
      <stop offset="1" stop-color="#4FC3F7"/>
    </linearGradient>
    <filter id="shadow" x="-20%" y="-20%" width="140%" height="150%" color-interpolation-filters="sRGB">
      <feDropShadow dx="0" dy="24" stdDeviation="24" flood-color="#1F2937" flood-opacity="0.14"/>
    </filter>
    <pattern id="grid" width="36" height="36" patternUnits="userSpaceOnUse">
      <path d="M36 0H0V36" stroke="#6D5EF8" stroke-opacity="0.08" stroke-width="1"/>
    </pattern>
  </defs>

  <rect x="28" y="28" width="1344" height="664" rx="34" fill="url(#bg)" stroke="#292733" stroke-width="3"/>
  <rect x="68" y="76" width="1264" height="508" rx="28" fill="url(#grid)"/>

  <g transform="translate(108 104)" filter="url(#shadow)">
    <rect x="0" y="0" width="360" height="430" rx="28" fill="#FFFFFF" stroke="#E5E7EB" stroke-width="2"/>
    <rect x="0" y="0" width="360" height="64" rx="28" fill="#111827"/>
    <circle cx="34" cy="32" r="8" fill="#FF6B5E"/>
    <circle cx="62" cy="32" r="8" fill="#F5C453"/>
    <circle cx="90" cy="32" r="8" fill="#58C970"/>
    <text x="124" y="40" fill="#F9FAFB" font-family="Inter, Arial, sans-serif" font-size="18" font-weight="800">Workspace</text>

    <rect x="28" y="94" width="116" height="32" rx="16" fill="#F3F4F6"/>
    <text x="54" y="116" fill="#111827" font-family="Inter, Arial, sans-serif" font-size="14" font-weight="800">Chat</text>
    <rect x="156" y="94" width="112" height="32" rx="16" fill="#EEF2FF"/>
    <text x="181" y="116" fill="#5547D9" font-family="Inter, Arial, sans-serif" font-size="14" font-weight="800">CRM</text>

    <rect x="28" y="154" width="304" height="70" rx="18" fill="#F8FAFC" stroke="#E5E7EB"/>
    <circle cx="60" cy="189" r="14" fill="url(#violet)"/>
    <rect x="88" y="174" width="124" height="10" rx="5" fill="#111827"/>
    <rect x="88" y="195" width="190" height="8" rx="4" fill="#CBD5E1"/>

    <rect x="28" y="246" width="304" height="70" rx="18" fill="#FFFFFF" stroke="#E5E7EB"/>
    <circle cx="60" cy="281" r="14" fill="#111827"/>
    <rect x="88" y="266" width="162" height="10" rx="5" fill="#111827"/>
    <rect x="88" y="287" width="206" height="8" rx="4" fill="#CBD5E1"/>

    <rect x="28" y="338" width="304" height="54" rx="18" fill="#F6F7FF" stroke="#DCD7FF"/>
    <text x="52" y="371" fill="#5547D9" font-family="Inter, Arial, sans-serif" font-size="15" font-weight="800">Daily orchestrator ready</text>
  </g>

  <g transform="translate(512 84)" filter="url(#shadow)">
    <rect x="0" y="0" width="536" height="492" rx="30" fill="#111827"/>
    <rect x="28" y="28" width="210" height="436" rx="22" fill="#171F2C" stroke="#2C3748"/>
    <text x="54" y="66" fill="#F9FAFB" font-family="Inter, Arial, sans-serif" font-size="20" font-weight="850">Agent run</text>
    <rect x="54" y="98" width="132" height="10" rx="5" fill="#64748B"/>
    <rect x="54" y="132" width="152" height="42" rx="14" fill="#223047" stroke="#34425A"/>
    <text x="72" y="158" fill="#E5E7EB" font-family="Inter, Arial, sans-serif" font-size="14" font-weight="700">resolve client_id</text>
    <rect x="54" y="196" width="152" height="42" rx="14" fill="#223047" stroke="#34425A"/>
    <text x="72" y="222" fill="#E5E7EB" font-family="Inter, Arial, sans-serif" font-size="14" font-weight="700">reuse session</text>
    <rect x="54" y="260" width="152" height="42" rx="14" fill="#223047" stroke="#34425A"/>
    <text x="72" y="286" fill="#E5E7EB" font-family="Inter, Arial, sans-serif" font-size="14" font-weight="700">dispatch tools</text>
    <rect x="54" y="324" width="152" height="42" rx="14" fill="#223047" stroke="#34425A"/>
    <text x="72" y="350" fill="#E5E7EB" font-family="Inter, Arial, sans-serif" font-size="14" font-weight="700">record evals</text>

    <rect x="270" y="28" width="238" height="204" rx="22" fill="#FFFFFF"/>
    <text x="298" y="66" fill="#111827" font-family="Inter, Arial, sans-serif" font-size="20" font-weight="850">CRM objects</text>
    <rect x="298" y="98" width="160" height="12" rx="6" fill="#111827"/>
    <rect x="298" y="128" width="186" height="10" rx="5" fill="#CBD5E1"/>
    <rect x="298" y="154" width="140" height="10" rx="5" fill="#CBD5E1"/>
    <rect x="298" y="182" width="74" height="24" rx="12" fill="#EEF2FF"/>
    <text x="316" y="199" fill="#5547D9" font-family="Inter, Arial, sans-serif" font-size="12" font-weight="800">deal</text>

    <rect x="270" y="260" width="238" height="204" rx="22" fill="#FFFFFF"/>
    <text x="298" y="298" fill="#111827" font-family="Inter, Arial, sans-serif" font-size="20" font-weight="850">Approval gate</text>
    <rect x="298" y="330" width="182" height="54" rx="16" fill="#FFF7ED" stroke="#FED7AA"/>
    <text x="316" y="362" fill="#9A3412" font-family="Inter, Arial, sans-serif" font-size="14" font-weight="800">Review before action</text>
    <rect x="298" y="406" width="84" height="30" rx="15" fill="url(#violet)"/>
    <text x="320" y="426" fill="#FFFFFF" font-family="Inter, Arial, sans-serif" font-size="13" font-weight="850">Approve</text>
    <rect x="394" y="406" width="74" height="30" rx="15" fill="#F3F4F6"/>
    <text x="414" y="426" fill="#374151" font-family="Inter, Arial, sans-serif" font-size="13" font-weight="850">Deny</text>
  </g>

  <g transform="translate(1088 142)" filter="url(#shadow)">
    <rect x="0" y="0" width="210" height="368" rx="28" fill="#FFFFFF" stroke="#E5E7EB" stroke-width="2"/>
    <text x="34" y="48" fill="#111827" font-family="Inter, Arial, sans-serif" font-size="20" font-weight="850">Tool layer</text>
    <g transform="translate(28 82)">
      <rect width="154" height="38" rx="19" fill="#F8FAFC" stroke="#E5E7EB"/>
      <circle cx="25" cy="19" r="7" fill="url(#blue)"/>
      <text x="46" y="24" fill="#111827" font-family="Inter, Arial, sans-serif" font-size="14" font-weight="800">CRM</text>
    </g>
    <g transform="translate(28 136)">
      <rect width="154" height="38" rx="19" fill="#F8FAFC" stroke="#E5E7EB"/>
      <circle cx="25" cy="19" r="7" fill="url(#violet)"/>
      <text x="46" y="24" fill="#111827" font-family="Inter, Arial, sans-serif" font-size="14" font-weight="800">Files</text>
    </g>
    <g transform="translate(28 190)">
      <rect width="154" height="38" rx="19" fill="#F8FAFC" stroke="#E5E7EB"/>
      <circle cx="25" cy="19" r="7" fill="#10B981"/>
      <text x="46" y="24" fill="#111827" font-family="Inter, Arial, sans-serif" font-size="14" font-weight="800">Meetings</text>
    </g>
    <g transform="translate(28 244)">
      <rect width="154" height="38" rx="19" fill="#F8FAFC" stroke="#E5E7EB"/>
      <circle cx="25" cy="19" r="7" fill="#F59E0B"/>
      <text x="46" y="24" fill="#111827" font-family="Inter, Arial, sans-serif" font-size="14" font-weight="800">Triggers</text>
    </g>
    <g transform="translate(28 298)">
      <rect width="154" height="38" rx="19" fill="#F8FAFC" stroke="#E5E7EB"/>
      <circle cx="25" cy="19" r="7" fill="#111827"/>
      <text x="46" y="24" fill="#111827" font-family="Inter, Arial, sans-serif" font-size="14" font-weight="800">Browser</text>
    </g>
  </g>

  <path d="M468 318C500 318 478 318 512 318" stroke="#6D5EF8" stroke-width="5" stroke-linecap="round" stroke-dasharray="2 14"/>
  <path d="M1048 318C1074 318 1062 318 1088 318" stroke="#6D5EF8" stroke-width="5" stroke-linecap="round" stroke-dasharray="2 14"/>

  <text x="92" y="626" fill="#111827" font-family="Inter, Arial, sans-serif" font-size="42" font-weight="850">AI CRM workspace for advisory sales</text>
  <text x="94" y="668" fill="#576170" font-family="Inter, Arial, sans-serif" font-size="22" font-weight="500">Chat, CRM, meetings, automations, memory, approvals, and tools in one tenant-aware agent harness.</text>
</svg>
