<svg width="1400" height="720" viewBox="0 0 1400 720" fill="none" xmlns="http://www.w3.org/2000/svg" role="img" aria-labelledby="title desc">
  <title id="title">NeoBot product workspace banner</title>
  <desc id="desc">A product-style AI CRM workspace with a dashboard, deal pipeline, meeting prep, follow-up tasks, and assistant panel.</desc>
  <defs>
    <linearGradient id="bg" x1="0" y1="0" x2="1400" y2="720" gradientUnits="userSpaceOnUse">
      <stop stop-color="#111827"/>
      <stop offset="0.48" stop-color="#1A1630"/>
      <stop offset="1" stop-color="#34204C"/>
    </linearGradient>
    <linearGradient id="card" x1="0" y1="0" x2="1" y2="1">
      <stop stop-color="#FFFFFF"/>
      <stop offset="1" stop-color="#F6F3FF"/>
    </linearGradient>
    <linearGradient id="violet" x1="0" y1="0" x2="1" y2="1">
      <stop stop-color="#7C5CFF"/>
      <stop offset="1" stop-color="#B469FF"/>
    </linearGradient>
    <linearGradient id="peach" x1="0" y1="0" x2="1" y2="1">
      <stop stop-color="#FFE7CF"/>
      <stop offset="1" stop-color="#FFF5EA"/>
    </linearGradient>
    <linearGradient id="mint" x1="0" y1="0" x2="1" y2="1">
      <stop stop-color="#DDFCEB"/>
      <stop offset="1" stop-color="#F3FFF8"/>
    </linearGradient>
    <filter id="shadow" x="-20%" y="-20%" width="140%" height="150%" color-interpolation-filters="sRGB">
      <feDropShadow dx="0" dy="24" stdDeviation="26" flood-color="#070A12" flood-opacity="0.34"/>
    </filter>
    <pattern id="grain" width="8" height="8" patternUnits="userSpaceOnUse">
      <circle cx="1" cy="1" r="0.7" fill="#FFFFFF" opacity="0.08"/>
    </pattern>
  </defs>

  <rect width="1400" height="720" fill="url(#bg)"/>
  <rect width="1400" height="720" fill="url(#grain)"/>
  <circle cx="1186" cy="92" r="210" fill="#7C5CFF" opacity="0.18"/>
  <circle cx="238" cy="646" r="250" fill="#22D3EE" opacity="0.09"/>
  <path d="M1032 0L1400 360V720H1276L912 0H1032Z" fill="#FFFFFF" opacity="0.06"/>

  <g transform="translate(86 70)">
    <text x="0" y="0" fill="#D7D2FF" font-family="Inter, Arial, sans-serif" font-size="17" font-weight="800" letter-spacing="0.12em">NEOBOT</text>
    <text x="0" y="58" fill="#FFFFFF" font-family="Inter, Arial, sans-serif" font-size="55" font-weight="850">AI CRM for relationship work</text>
    <text x="3" y="96" fill="#C9D0E5" font-family="Inter, Arial, sans-serif" font-size="22" font-weight="500">Keep meetings, follow-ups, deals, and approvals moving from one calm workspace.</text>
  </g>

  <g transform="translate(86 174)" filter="url(#shadow)">
    <rect width="1228" height="458" rx="30" fill="#F8FAFC"/>
    <path d="M30 0H1198C1214.6 0 1228 13.4 1228 30V70H0V30C0 13.4 13.4 0 30 0Z" fill="#101521"/>
    <circle cx="34" cy="35" r="8" fill="#FF6B5E"/>
    <circle cx="62" cy="35" r="8" fill="#F5C453"/>
    <circle cx="90" cy="35" r="8" fill="#58C970"/>
    <text x="126" y="43" fill="#F8FAFC" font-family="Inter, Arial, sans-serif" font-size="18" font-weight="850">NeoBot workspace</text>
    <rect x="1014" y="21" width="164" height="30" rx="15" fill="#222B3D"/>
    <circle cx="1038" cy="36" r="6" fill="#34D399"/>
    <text x="1054" y="41" fill="#D1FAE5" font-family="Inter, Arial, sans-serif" font-size="13" font-weight="800">Daily plan ready</text>

    <path d="M0 70H210V458H30C13.4 458 0 444.6 0 428V70Z" fill="#111827"/>
    <g font-family="Inter, Arial, sans-serif" font-size="15" font-weight="800">
      <rect x="24" y="104" width="162" height="42" rx="14" fill="#FFFFFF" opacity="0.1"/>
      <text x="58" y="131" fill="#FFFFFF">Home</text>
      <text x="58" y="184" fill="#94A3B8">Chat</text>
      <text x="58" y="235" fill="#94A3B8">CRM</text>
      <text x="58" y="286" fill="#94A3B8">Meetings</text>
      <text x="58" y="337" fill="#94A3B8">Automations</text>
      <text x="58" y="388" fill="#94A3B8">Settings</text>
    </g>
    <g fill="none" stroke-linecap="round" stroke-width="3">
      <path d="M36 125H46M41 120V130" stroke="#FFFFFF"/>
      <path d="M36 178H47" stroke="#94A3B8"/>
      <path d="M36 229H47M36 237H44" stroke="#94A3B8"/>
      <path d="M36 280H47M36 288H43" stroke="#94A3B8"/>
      <path d="M36 330C45 330 45 345 54 345" stroke="#94A3B8"/>
      <path d="M36 381H48" stroke="#94A3B8"/>
    </g>

    <g transform="translate(242 102)">
      <text x="0" y="0" fill="#111827" font-family="Inter, Arial, sans-serif" font-size="32" font-weight="850">Today</text>
      <text x="2" y="32" fill="#64748B" font-family="Inter, Arial, sans-serif" font-size="17" font-weight="600">A clear queue for the relationship work that matters.</text>

      <g transform="translate(0 66)">
        <rect width="198" height="112" rx="22" fill="url(#card)" stroke="#E3E7EF"/>
        <text x="24" y="36" fill="#64748B" font-family="Inter, Arial, sans-serif" font-size="14" font-weight="800">FOLLOW-UPS</text>
        <text x="24" y="78" fill="#111827" font-family="Inter, Arial, sans-serif" font-size="38" font-weight="850">12</text>
        <rect x="112" y="55" width="54" height="28" rx="14" fill="#EEF2FF"/>
        <text x="126" y="74" fill="#5B4BDB" font-family="Inter, Arial, sans-serif" font-size="13" font-weight="850">due</text>
      </g>

      <g transform="translate(226 66)">
        <rect width="198" height="112" rx="22" fill="url(#mint)" stroke="#C5F2D6"/>
        <text x="24" y="36" fill="#047857" font-family="Inter, Arial, sans-serif" font-size="14" font-weight="800">MEETING PREP</text>
        <text x="24" y="78" fill="#064E3B" font-family="Inter, Arial, sans-serif" font-size="28" font-weight="850">3 ready</text>
      </g>

      <g transform="translate(452 66)">
        <rect width="198" height="112" rx="22" fill="url(#peach)" stroke="#FBD0A8"/>
        <text x="24" y="36" fill="#B45309" font-family="Inter, Arial, sans-serif" font-size="14" font-weight="800">APPROVALS</text>
        <text x="24" y="78" fill="#7C2D12" font-family="Inter, Arial, sans-serif" font-size="28" font-weight="850">2 waiting</text>
      </g>

      <g transform="translate(0 188)">
        <text x="0" y="0" fill="#111827" font-family="Inter, Arial, sans-serif" font-size="20" font-weight="850">Pipeline</text>
        <rect x="0" y="24" width="200" height="118" rx="20" fill="#FFFFFF" stroke="#E3E7EF"/>
        <text x="20" y="56" fill="#64748B" font-family="Inter, Arial, sans-serif" font-size="13" font-weight="850">New lead</text>
        <rect x="20" y="78" width="160" height="34" rx="12" fill="#F8FAFC" stroke="#E3E7EF"/>
        <text x="36" y="100" fill="#111827" font-family="Inter, Arial, sans-serif" font-size="13" font-weight="800">Rachel Ng</text>
        <rect x="20" y="120" width="130" height="10" rx="5" fill="#CBD5E1"/>

        <rect x="224" y="24" width="200" height="118" rx="20" fill="#FFFFFF" stroke="#E3E7EF"/>
        <text x="244" y="56" fill="#64748B" font-family="Inter, Arial, sans-serif" font-size="13" font-weight="850">Active</text>
        <rect x="244" y="78" width="160" height="34" rx="12" fill="#F5F3FF" stroke="#DDD6FE"/>
        <text x="260" y="100" fill="#5B21B6" font-family="Inter, Arial, sans-serif" font-size="13" font-weight="850">Marcus Loh</text>
        <rect x="244" y="120" width="112" height="10" rx="5" fill="#C4B5FD"/>

        <rect x="448" y="24" width="200" height="118" rx="20" fill="#FFFFFF" stroke="#E3E7EF"/>
        <text x="468" y="56" fill="#64748B" font-family="Inter, Arial, sans-serif" font-size="13" font-weight="850">Closing</text>
        <rect x="468" y="78" width="160" height="34" rx="12" fill="#ECFDF5" stroke="#BBF7D0"/>
        <text x="484" y="100" fill="#047857" font-family="Inter, Arial, sans-serif" font-size="13" font-weight="850">David Lim</text>
        <rect x="468" y="120" width="142" height="10" rx="5" fill="#86EFAC"/>
      </g>
    </g>

    <g transform="translate(932 102)">
      <rect width="248" height="326" rx="24" fill="#FFFFFF" stroke="#E3E7EF"/>
      <rect x="22" y="22" width="204" height="64" rx="18" fill="#111827"/>
      <circle cx="54" cy="54" r="14" fill="url(#violet)"/>
      <text x="78" y="48" fill="#FFFFFF" font-family="Inter, Arial, sans-serif" font-size="15" font-weight="850">NeoBot</text>
      <text x="78" y="68" fill="#C7D2FE" font-family="Inter, Arial, sans-serif" font-size="12" font-weight="700">Assistant</text>

      <rect x="22" y="110" width="204" height="62" rx="18" fill="#F8FAFC" stroke="#E3E7EF"/>
      <text x="42" y="136" fill="#111827" font-family="Inter, Arial, sans-serif" font-size="14" font-weight="850">Prepare meeting</text>
      <text x="42" y="156" fill="#64748B" font-family="Inter, Arial, sans-serif" font-size="12" font-weight="650">Pull last notes and open tasks</text>

      <rect x="22" y="190" width="204" height="62" rx="18" fill="#FFF7ED" stroke="#FED7AA"/>
      <text x="42" y="216" fill="#9A3412" font-family="Inter, Arial, sans-serif" font-size="14" font-weight="850">Approve follow-up</text>
      <text x="42" y="236" fill="#B45309" font-family="Inter, Arial, sans-serif" font-size="12" font-weight="650">Review message before send</text>

      <rect x="22" y="274" width="88" height="32" rx="16" fill="url(#violet)"/>
      <text x="45" y="295" fill="#FFFFFF" font-family="Inter, Arial, sans-serif" font-size="13" font-weight="850">Send</text>
      <rect x="122" y="274" width="82" height="32" rx="16" fill="#F1F5F9"/>
      <text x="148" y="295" fill="#475569" font-family="Inter, Arial, sans-serif" font-size="13" font-weight="850">Edit</text>
    </g>
  </g>
</svg>
